<svg version="1.2" xmlns="http://www.w3.org/2000/svg" xmlns:xlink="http://www.w3.org/1999/xlink" overflow="visible" preserveAspectRatio="none" viewBox="0 0 24 24" width="30" height="30"><g><path xmlns:default="http://www.w3.org/2000/svg" id="file-pdf-o" d="M16,3.38c-0.23-0.22-0.5-0.39-0.79-0.5c-0.29-0.13-0.6-0.2-0.92-0.21H5c-0.55,0-1,0.45-1,1v16.66  c0,0.55,0.45,1,1,1h14c0.55,0,1-0.45,1-1v-12c-0.01-0.32-0.08-0.63-0.21-0.92c-0.11-0.29-0.28-0.56-0.5-0.79L16,3.38z M15.05,4.32  l3.26,3.26c0.11,0.13,0.19,0.27,0.23,0.43h-3.87V4.09c0.15,0.05,0.3,0.12,0.42,0.23H15.05z M18.66,20H5.34V4h8v4.34  c0,0.55,0.45,1,1,1h4.33V20l0,0H18.66z M13.31,13.83c-0.73-0.67-1.26-1.53-1.52-2.48c0.1-0.66,0.15-1.33,0.15-2V9  c0-0.03,0-0.05,0-0.08c0-0.03,0-0.05,0-0.08c0.08-0.24,0.05-0.5-0.09-0.71C11.76,8.04,11.64,7.99,11.51,8h-0.23  c-0.23,0.01-0.42,0.19-0.44,0.42c-0.1,0.44-0.12,0.89-0.07,1.33c0.05,0.56,0.16,1.12,0.32,1.66c-0.28,0.94-0.64,1.85-1.09,2.72  c-0.37,0.78-0.74,1.47-1.1,2.06l0,0c-0.03-0.08-0.12-0.12-0.19-0.09c-0.02,0.01-0.03,0.02-0.05,0.03c-0.51,0.25-0.97,0.59-1.37,1  c-0.28,0.28-0.48,0.62-0.58,1c-0.04,0.13-0.02,0.26,0.06,0.37l0.03-0.03l0.25,0.12c0.09,0.05,0.19,0.07,0.29,0.07  c0.62,0,1.46-0.91,2.52-2.73c1.32-0.44,2.69-0.73,4.08-0.86c0.43,0.23,0.88,0.41,1.35,0.55c0.39,0.13,0.79,0.2,1.2,0.21  c0.31,0.09,0.64-0.09,0.74-0.4l0,0l0,0l0,0c0.11-0.16,0.11-0.38,0-0.54c-0.5-0.44-1.18-0.63-1.84-0.51c-0.41,0-0.82,0.02-1.22,0.07  c-0.3-0.17-0.59-0.37-0.87-0.58l0,0L13.31,13.83z M7.83,17.33c0.27-0.32,0.58-0.61,0.91-0.87c-0.34,0.65-0.83,1.22-1.43,1.64  C7.45,17.82,7.62,17.56,7.83,17.33z M11.46,8.52L11.46,8.52c0.09,0.1,0.14,0.23,0.14,0.37v0.02c0,0.03,0,0.05,0,0.08  c-0.05,0.28-0.07,0.43-0.07,0.45L11.46,9.9c-0.1-0.45-0.1-0.92,0-1.37l0,0L11.46,8.52z M10.64,14.52c0.34-0.66,0.63-1.34,0.86-2.05  c0.31,0.69,0.76,1.32,1.32,1.83L13,14.46l0.14,0.1c-1.03,0.18-2.03,0.46-3,0.84L10.64,14.52z M16.9,15.22L16.9,15.22h-0.17  c-0.44,0-0.88-0.08-1.29-0.22c0.5-0.07,1.01,0.02,1.46,0.25l0,0L16.9,15.22z" style="fill: rgb(123, 134, 140);" vector-effect="non-scaling-stroke"/></g></svg>