<svg version="1.2" xmlns="http://www.w3.org/2000/svg" xmlns:xlink="http://www.w3.org/1999/xlink" overflow="visible" preserveAspectRatio="none" viewBox="0 0 737 737" width="737" height="737"><g transform="translate(0, 0)"><defs><path id="path-172080701018613222" d="M368.5000000000003 0 C571.8806865260387 0 737.0000000000006 165.11931347396117 737.0000000000006 368.5000000000003 C737.0000000000006 571.8806865260391 571.8806865260387 737.0000000000006 368.5000000000003 737.0000000000006 C165.11931347396114 737.0000000000006 0 571.8806865260391 0 368.5000000000003 C0 165.11931347396117 165.11931347396114 0 368.5000000000003 0 Z" vector-effect="non-scaling-stroke"/><filter height="102.30664857530529%" id="filter-172080701032914145" width="102.03527815468114%" x="-0%" y="-0%" vector-effect="non-scaling-stroke"><feFlood flood-opacity="0" result="backgroundFix" vector-effect="non-scaling-stroke"/><feColorMatrix in="SourceAlpha" result="hardAlpha" type="matrix" values="0 0 0 0 0 0 0 0 0 0 0 0 0 0 0 0 0 0 127 0" vector-effect="non-scaling-stroke"/><feOffset dx="5" dy="6" vector-effect="non-scaling-stroke"/><feGaussianBlur stdDeviation="2.166666666666667" vector-effect="non-scaling-stroke"/><feColorMatrix in="" result="" type="matrix" values="0 0 0 0 0.4196078431372549  0 0 0 0 0.8470588235294118  0 0 0 0 0.2784313725490196  0 0 0 0.3 0" vector-effect="non-scaling-stroke"/><feBlend in2="backgroundFix" mode="normal" result="shadowOuter_1" vector-effect="non-scaling-stroke"/></filter></defs><g transform="translate(0, 0)"><use xmlns:xlink="http://www.w3.org/1999/xlink" xlink:href="#path-172080701018613222" filter="url(#filter-172080701032914145)" vector-effect="non-scaling-stroke"/><path d="M368.5000000000003 0 C571.8806865260387 0 737.0000000000006 165.11931347396117 737.0000000000006 368.5000000000003 C737.0000000000006 571.8806865260391 571.8806865260387 737.0000000000006 368.5000000000003 737.0000000000006 C165.11931347396114 737.0000000000006 0 571.8806865260391 0 368.5000000000003 C0 165.11931347396117 165.11931347396114 0 368.5000000000003 0 Z" style="stroke: rgb(140, 140, 140); stroke-width: 0; stroke-linecap: butt; stroke-linejoin: miter; fill: rgb(107, 216, 71);" vector-effect="non-scaling-stroke"/></g></g></svg>