<svg version="1.2" xmlns="http://www.w3.org/2000/svg" xmlns:xlink="http://www.w3.org/1999/xlink" overflow="visible" preserveAspectRatio="none" viewBox="0 0 576 575" width="576" height="575"><g transform="translate(0, 0)"><defs><path id="path-172080701017913211" d="M288.0000000000001 0 C446.95152705427137 0 576.0000000000002 128.82443045797504 576.0000000000002 287.50000000000034 C576.0000000000002 446.1755695420248 446.95152705427137 575.0000000000007 288.0000000000001 575.0000000000007 C129.04847294572787 575.0000000000007 0 446.1755695420248 0 287.50000000000034 C0 128.82443045797504 129.04847294572787 0 288.0000000000001 0 Z" vector-effect="non-scaling-stroke"/><filter height="105.3913043478261%" id="filter-172080701033414148" width="101.73611111111111%" x="-0.8680555555555556%" y="-0%" vector-effect="non-scaling-stroke"><feFlood flood-opacity="0" result="backgroundFix" vector-effect="non-scaling-stroke"/><feColorMatrix in="SourceAlpha" result="hardAlpha" type="matrix" values="0 0 0 0 0 0 0 0 0 0 0 0 0 0 0 0 0 0 127 0" vector-effect="non-scaling-stroke"/><feOffset dx="0" dy="13" vector-effect="non-scaling-stroke"/><feGaussianBlur stdDeviation="2.166666666666667" vector-effect="non-scaling-stroke"/><feColorMatrix in="" result="" type="matrix" values="0 0 0 0 0.9803921568627451  0 0 0 0 0.2784313725490196  0 0 0 0 0.35294117647058826  0 0 0 0.3 0" vector-effect="non-scaling-stroke"/><feBlend in2="backgroundFix" mode="normal" result="shadowOuter_1" vector-effect="non-scaling-stroke"/></filter></defs><g transform="translate(0, 0)"><use xmlns:xlink="http://www.w3.org/1999/xlink" xlink:href="#path-172080701017913211" filter="url(#filter-172080701033414148)" vector-effect="non-scaling-stroke"/><path d="M288.0000000000001 0 C446.95152705427137 0 576.0000000000002 128.82443045797504 576.0000000000002 287.50000000000034 C576.0000000000002 446.1755695420248 446.95152705427137 575.0000000000007 288.0000000000001 575.0000000000007 C129.04847294572787 575.0000000000007 0 446.1755695420248 0 287.50000000000034 C0 128.82443045797504 129.04847294572787 0 288.0000000000001 0 Z" style="stroke: rgb(140, 140, 140); stroke-width: 0; stroke-linecap: butt; stroke-linejoin: miter; fill: rgb(250, 71, 90);" vector-effect="non-scaling-stroke"/></g></g></svg>