<svg version="1.2" xmlns="http://www.w3.org/2000/svg" xmlns:xlink="http://www.w3.org/1999/xlink" overflow="visible" preserveAspectRatio="none" viewBox="0 0 378 377" width="378" height="377"><g transform="translate(0, 0)"><defs><path id="path-172080701018213215" d="M188.99999999999997 0 C293.31193962936595 0 377.99999999999994 84.46401788288108 377.99999999999994 188.50000000000028 C377.99999999999994 292.5359821171194 293.31193962936595 377.00000000000057 188.99999999999997 377.00000000000057 C84.68806037063398 377.00000000000057 0 292.5359821171194 0 188.50000000000028 C0 84.46401788288108 84.68806037063398 0 188.99999999999997 0 Z" vector-effect="non-scaling-stroke"/><filter height="104.50928381962865%" id="filter-172080701033214147" width="103.96825396825398%" x="-0%" y="-0%" vector-effect="non-scaling-stroke"><feFlood flood-opacity="0" result="backgroundFix" vector-effect="non-scaling-stroke"/><feColorMatrix in="SourceAlpha" result="hardAlpha" type="matrix" values="0 0 0 0 0 0 0 0 0 0 0 0 0 0 0 0 0 0 127 0" vector-effect="non-scaling-stroke"/><feOffset dx="5" dy="6" vector-effect="non-scaling-stroke"/><feGaussianBlur stdDeviation="2.166666666666667" vector-effect="non-scaling-stroke"/><feColorMatrix in="" result="" type="matrix" values="0 0 0 0 0.4823529411764706  0 0 0 0 0.5254901960784314  0 0 0 0 0.5490196078431373  0 0 0 0.3 0" vector-effect="non-scaling-stroke"/><feBlend in2="backgroundFix" mode="normal" result="shadowOuter_1" vector-effect="non-scaling-stroke"/></filter></defs><g transform="translate(0, 0)"><use xmlns:xlink="http://www.w3.org/1999/xlink" xlink:href="#path-172080701018213215" filter="url(#filter-172080701033214147)" vector-effect="non-scaling-stroke"/><path d="M188.99999999999997 0 C293.31193962936595 0 377.99999999999994 84.46401788288108 377.99999999999994 188.50000000000028 C377.99999999999994 292.5359821171194 293.31193962936595 377.00000000000057 188.99999999999997 377.00000000000057 C84.68806037063398 377.00000000000057 0 292.5359821171194 0 188.50000000000028 C0 84.46401788288108 84.68806037063398 0 188.99999999999997 0 Z" style="stroke: rgb(140, 140, 140); stroke-width: 0; stroke-linecap: butt; stroke-linejoin: miter; fill: rgb(123, 134, 140);" vector-effect="non-scaling-stroke"/></g></g></svg>