<svg version="1.2" xmlns="http://www.w3.org/2000/svg" xmlns:xlink="http://www.w3.org/1999/xlink" overflow="visible" preserveAspectRatio="none" viewBox="0 0 415 415" width="415" height="415"><g transform="translate(0, 0)"><defs><path id="path-172080701017713208" d="M207.50000000000009 0 C322.02236758250496 0 415.00000000000017 92.97763241749513 415.00000000000017 207.50000000000009 C415.00000000000017 322.02236758250524 322.02236758250496 415.00000000000017 207.50000000000009 415.00000000000017 C92.97763241749503 415.00000000000017 0 322.02236758250524 0 207.50000000000009 C0 92.97763241749513 92.97763241749503 0 207.50000000000009 0 Z" vector-effect="non-scaling-stroke"/><filter height="105.06024096385542%" id="filter-172080701033614149" width="103.6144578313253%" x="-0%" y="-0%" vector-effect="non-scaling-stroke"><feFlood flood-opacity="0" result="backgroundFix" vector-effect="non-scaling-stroke"/><feColorMatrix in="SourceAlpha" result="hardAlpha" type="matrix" values="0 0 0 0 0 0 0 0 0 0 0 0 0 0 0 0 0 0 127 0" vector-effect="non-scaling-stroke"/><feOffset dx="5" dy="8" vector-effect="non-scaling-stroke"/><feGaussianBlur stdDeviation="2.166666666666667" vector-effect="non-scaling-stroke"/><feColorMatrix in="" result="" type="matrix" values="0 0 0 0 0.9490196078431372  0 0 0 0 0.5372549019607843  0 0 0 0 0.00784313725490196  0 0 0 0.3 0" vector-effect="non-scaling-stroke"/><feBlend in2="backgroundFix" mode="normal" result="shadowOuter_1" vector-effect="non-scaling-stroke"/></filter></defs><g transform="translate(0, 0)"><use xmlns:xlink="http://www.w3.org/1999/xlink" xlink:href="#path-172080701017713208" filter="url(#filter-172080701033614149)" vector-effect="non-scaling-stroke"/><path d="M207.50000000000009 0 C322.02236758250496 0 415.00000000000017 92.97763241749513 415.00000000000017 207.50000000000009 C415.00000000000017 322.02236758250524 322.02236758250496 415.00000000000017 207.50000000000009 415.00000000000017 C92.97763241749503 415.00000000000017 0 322.02236758250524 0 207.50000000000009 C0 92.97763241749513 92.97763241749503 0 207.50000000000009 0 Z" style="stroke: rgb(140, 140, 140); stroke-width: 0; stroke-linecap: butt; stroke-linejoin: miter; fill: rgb(242, 137, 2);" vector-effect="non-scaling-stroke"/></g></g></svg>