<svg version="1.2" xmlns="http://www.w3.org/2000/svg" xmlns:xlink="http://www.w3.org/1999/xlink" overflow="visible" preserveAspectRatio="none" viewBox="0 0 483.99999999999994 475.99999999999983" width="483.99999999999994" height="475.99999999999983"><g transform="translate(0, 0)"><defs><path id="path-172080701018413218" d="M242.00000000000003 0 C375.5634359275477 0 484.00000000000006 106.64422417042798 484.00000000000006 237.99999999999991 C484.00000000000006 369.35577582957166 375.5634359275477 475.99999999999983 242.00000000000003 475.99999999999983 C108.43656407245203 475.99999999999983 0 369.35577582957166 0 237.99999999999991 C0 106.64422417042798 108.43656407245203 0 242.00000000000003 0 Z" vector-effect="non-scaling-stroke"/><filter height="106.5126050420168%" id="filter-172080701033014146" width="102.06611570247934%" x="-1.0330578512396695%" y="-0%" vector-effect="non-scaling-stroke"><feFlood flood-opacity="0" result="backgroundFix" vector-effect="non-scaling-stroke"/><feColorMatrix in="SourceAlpha" result="hardAlpha" type="matrix" values="0 0 0 0 0 0 0 0 0 0 0 0 0 0 0 0 0 0 127 0" vector-effect="non-scaling-stroke"/><feOffset dx="0" dy="13" vector-effect="non-scaling-stroke"/><feGaussianBlur stdDeviation="2.166666666666667" vector-effect="non-scaling-stroke"/><feColorMatrix in="" result="" type="matrix" values="0 0 0 0 0.21176470588235294  0 0 0 0 0.6941176470588235  0 0 0 0 0.803921568627451  0 0 0 0.3 0" vector-effect="non-scaling-stroke"/><feBlend in2="backgroundFix" mode="normal" result="shadowOuter_1" vector-effect="non-scaling-stroke"/></filter></defs><g transform="translate(0, 0)"><use xmlns:xlink="http://www.w3.org/1999/xlink" xlink:href="#path-172080701018413218" filter="url(#filter-172080701033014146)" vector-effect="non-scaling-stroke"/><path d="M242.00000000000003 0 C375.5634359275477 0 484.00000000000006 106.64422417042798 484.00000000000006 237.99999999999991 C484.00000000000006 369.35577582957166 375.5634359275477 475.99999999999983 242.00000000000003 475.99999999999983 C108.43656407245203 475.99999999999983 0 369.35577582957166 0 237.99999999999991 C0 106.64422417042798 108.43656407245203 0 242.00000000000003 0 Z" style="stroke: rgb(140, 140, 140); stroke-width: 0; stroke-linecap: butt; stroke-linejoin: miter; fill: rgb(54, 177, 205);" vector-effect="non-scaling-stroke"/></g></g></svg>